<?xml version="1.0" encoding="iso-8859-1"?>
<!-- Generator: Adobe Illustrator 19.0.0, SVG Export Plug-In . SVG Version: 6.00 Build 0)  -->
<svg version="1.1" id="Layer_1" xmlns="http://www.w3.org/2000/svg" xmlns:xlink="http://www.w3.org/1999/xlink" x="0px" y="0px"
	 viewBox="0 0 512 512" style="enable-background:new 0 0 512 512;" xml:space="preserve">
<circle style="fill:#324A5E;" cx="256" cy="256" r="256"/>
<path style="fill:#2B3B4E;" d="M265.845,511.795c62.197-2.379,123.692-27.293,171.173-74.774
	c47.323-47.323,72.23-108.563,74.752-170.546L393.195,147.211l-84.546,69.57L118.413,364.363L265.845,511.795z"/>
<path style="fill:#E6F3FF;" d="M381.128,369.778H130.874c-9.442,0-17.094-7.654-17.094-17.096V159.318
	c0-9.442,7.654-17.094,17.094-17.094h250.254c9.442,0,17.094,7.654,17.094,17.094v193.365
	C398.222,362.124,390.568,369.778,381.128,369.778z"/>
<path style="fill:#CFDBE6;" d="M381.128,142.222H255.426v227.556h125.702c9.442,0,17.096-7.654,17.096-17.096V159.318
	C398.222,149.876,390.568,142.222,381.128,142.222z"/>
<path style="fill:#B5F1F4;" d="M398.222,159.318c0-9.442-7.654-17.096-17.096-17.096H130.874c-9.442,0-17.096,7.654-17.096,17.096
	v7.901h284.444V159.318z"/>
<path style="fill:#84DBFF;" d="M398.222,159.318c0-9.442-7.654-17.096-17.096-17.096H255.424v24.997h142.798V159.318z"/>
<path style="fill:#B5F1F4;" d="M113.778,350.815v1.867c0,9.442,7.654,17.096,17.096,17.096h250.254
	c9.442,0,17.096-7.654,17.096-17.096v-1.867H113.778z"/>
<path style="fill:#84DBFF;" d="M255.426,350.815v18.963h125.702c9.442,0,17.096-7.654,17.096-17.096v-1.867H255.426z"/>
<g>
	<circle style="fill:#00A49A;" cx="136.826" cy="156.444" r="6.034"/>
	<circle style="fill:#00A49A;" cx="161.185" cy="156.444" r="6.034"/>
	<circle style="fill:#00A49A;" cx="185.527" cy="156.444" r="6.034"/>
</g>
<path style="fill:#FFD15D;" d="M293.064,293.064h-74.128v-65.508c0-20.437,16.627-37.064,37.064-37.064s37.064,16.627,37.064,37.064
	V293.064z M236.175,275.825h39.65v-48.269c0-10.931-8.894-19.825-19.825-19.825c-10.931,0-19.825,8.894-19.825,19.825V275.825z"/>
<path style="fill:#F9B54C;" d="M293.064,227.556c0-20.437-16.627-37.064-37.064-37.064c-0.193,0-0.381,0.026-0.574,0.029v17.239
	c0.193-0.005,0.381-0.029,0.574-0.029c10.931,0,19.825,8.894,19.825,19.825v48.269h-20.399v17.239h37.638V227.556z"/>
<path style="fill:#FC6F58;" d="M302.259,341.333h-92.517c-5.872,0-10.63-4.76-10.63-10.631V266.63c0-5.872,4.76-10.631,10.63-10.631
	h92.517c5.872,0,10.63,4.76,10.63,10.631v64.072C312.889,336.574,308.129,341.333,302.259,341.333z"/>
<path style="fill:#F1543F;" d="M302.259,256h-46.833v85.333h46.833c5.872,0,10.631-4.76,10.631-10.631V266.63
	C312.889,260.76,308.129,256,302.259,256z"/>
<path style="fill:#324A5E;" d="M267.205,291.771c0-6.189-5.017-11.205-11.205-11.205c-6.189,0-11.205,5.017-11.205,11.205
	c0,3.965,2.065,7.44,5.172,9.431v16.427h12.067v-16.427C265.14,299.211,267.205,295.736,267.205,291.771z"/>
<path style="fill:#2B3B4E;" d="M256,280.566c-0.193,0-0.383,0.019-0.574,0.029v37.035h6.608v-16.427
	c3.106-1.993,5.172-5.468,5.172-9.431C267.205,285.582,262.189,280.566,256,280.566z"/>
<g>
</g>
<g>
</g>
<g>
</g>
<g>
</g>
<g>
</g>
<g>
</g>
<g>
</g>
<g>
</g>
<g>
</g>
<g>
</g>
<g>
</g>
<g>
</g>
<g>
</g>
<g>
</g>
<g>
</g>
</svg>
