<?xml version="1.0" encoding="iso-8859-1"?>
<!-- Generator: Adobe Illustrator 19.0.0, SVG Export Plug-In . SVG Version: 6.00 Build 0)  -->
<svg version="1.1" id="Layer_1" xmlns="http://www.w3.org/2000/svg" xmlns:xlink="http://www.w3.org/1999/xlink" x="0px" y="0px"
	 viewBox="0 0 512 512" style="enable-background:new 0 0 512 512;" xml:space="preserve">
<circle style="fill:#324A5E;" cx="256" cy="256" r="256"/>
<path style="fill:#2B3B4E;" d="M508.349,299.222l-196.63-196.63l-84.549,49.036l-21.895,55.093l55.036,63.071l-103.069,7.758
	l-10.995,8.332l-0.653,17.656l-35.045,90.015l115.969,116.746C236.192,511.41,246.025,512,256,512
	C382.652,512,487.805,420.021,508.349,299.222z"/>
<path style="fill:#F4E3C3;" d="M348.217,267.81h-87.045v-58.371h-10.343v58.371h-87.045c-14.146,0-25.657,12.031-25.657,26.821
	v77.467h10.343v-77.467c0-9.087,6.868-16.477,15.313-16.477h87.045V367.7h10.343v-89.547h87.045c8.444,0,15.313,7.39,15.313,16.477
	v77.467h10.343v-77.467C373.874,279.842,362.363,267.81,348.217,267.81z"/>
<path style="fill:#FED8B2;" d="M348.217,267.81h-87.045v-58.371h-5.746v158.263h5.746v-89.547h87.045
	c8.444,0,15.313,7.39,15.313,16.477V372.1h10.343v-77.467C373.874,279.842,362.363,267.81,348.217,267.81z"/>
<g>
	<circle style="fill:#F9B54C;" cx="141.929" cy="362.106" r="44.52"/>
	<circle style="fill:#F9B54C;" cx="256" cy="362.106" r="44.52"/>
	<circle style="fill:#F9B54C;" cx="370.088" cy="362.106" r="44.52"/>
</g>
<g>
	<path style="fill:#F4A200;" d="M141.921,317.585c24.588,0,44.52,19.932,44.52,44.52c0,24.588-19.932,44.52-44.52,44.52V317.585z"/>
	<path style="fill:#F4A200;" d="M256,317.585c-0.193,0-0.383,0.012-0.574,0.014v89.009c0.191,0.002,0.381,0.014,0.574,0.014
		c24.586,0,44.52-19.932,44.52-44.52C300.52,337.517,280.586,317.585,256,317.585z"/>
	<path style="fill:#F4A200;" d="M370.079,317.585c24.586,0,44.52,19.932,44.52,44.52c0,24.588-19.932,44.52-44.52,44.52V317.585z"/>
</g>
<circle style="fill:#E9EFF4;" cx="256" cy="152.1" r="74.559"/>
<path style="fill:#B8C9D9;" d="M256,77.552c-0.193,0-0.381,0.014-0.574,0.014v149.078c0.193,0.002,0.381,0.016,0.574,0.016
	c41.175,0,74.554-33.378,74.554-74.554S297.175,77.552,256,77.552z"/>
<path style="fill:#FFFFFF;" d="M300.597,193.072h-89.195v-15.117c0-10.745,6.877-20.285,17.07-23.683l16.379-5.46h22.299
	l16.379,5.46c10.193,3.398,17.07,12.938,17.07,23.683v15.117H300.597z"/>
<path style="fill:#D0D1D3;" d="M300.597,177.955c0-10.745-6.877-20.285-17.07-23.683l-16.379-5.46h-11.724v44.26h45.172v-15.117
	H300.597z"/>
<polygon style="fill:#FED8B2;" points="267.15,148.813 256,159.961 244.85,148.813 244.85,137.662 267.15,137.662 "/>
<polygon style="fill:#EFC095;" points="255.426,137.662 255.426,159.387 256,159.961 267.15,148.813 267.15,137.662 "/>
<path style="fill:#F4E3C3;" d="M233.701,115.364c0-12.316,9.983-22.299,22.299-22.299s22.299,9.983,22.299,22.299
	s-9.983,33.449-22.299,33.449S233.701,127.679,233.701,115.364z"/>
<path style="fill:#FED8B2;" d="M256,93.065c-0.193,0-0.381,0.024-0.574,0.029v55.687c0.191,0.01,0.381,0.031,0.574,0.031
	c12.316,0,22.299-21.133,22.299-33.449S268.316,93.065,256,93.065z"/>
<path style="fill:#434344;" d="M278.299,115.364c0-12.316-9.983-22.299-22.299-22.299s-22.299,9.983-22.299,22.299
	c0,4.915,1.593,11.231,4.287,17.051c-0.631-3.35-0.462-6.775-0.131-9.359c14.155-1.11,27.814-7.732,27.814-7.732
	s1.729,3.177,8.213,6.004c0.459,2.638,0.914,6.927,0.124,11.099C276.704,126.604,278.299,120.282,278.299,115.364z"/>
<path style="fill:#272525;" d="M278.299,115.364c0-12.316-9.983-22.299-22.299-22.299c-0.193,0-0.381,0.024-0.574,0.029v26.229
	c6.089-1.991,10.243-3.999,10.243-3.999s1.729,3.177,8.213,6.004c0.459,2.638,0.914,6.927,0.124,11.099
	C276.704,126.604,278.299,120.28,278.299,115.364z"/>
<polygon style="fill:#F7BC6D;" points="251.311,192.683 254.436,163.673 257.562,163.673 260.689,192.683 "/>
<polygon style="fill:#F9B54C;" points="257.562,163.673 255.426,163.673 255.426,192.683 260.689,192.683 "/>
<path style="fill:#734B46;" d="M239.749,150.512l-11.278,3.76c-10.193,3.398-17.07,12.938-17.07,23.683v15.117h44.023v-1.879
	L239.749,150.512z"/>
<path style="fill:#57442F;" d="M300.597,177.955c0-10.745-6.877-20.285-17.07-23.683l-11.278-3.76l-16.251,42.17l-0.574-1.489v1.879
	h45.171v-15.117H300.597z"/>
<polygon style="fill:#443424;" points="272.25,150.512 275.34,163.673 269.479,166.603 275.34,173.344 256,192.683 "/>
<polygon style="fill:#633E3B;" points="239.749,150.512 236.66,163.673 242.521,166.603 236.66,173.344 256,192.683 "/>
<polygon style="fill:#F9B54C;" points="262.153,160.009 258.051,169.681 253.949,169.681 249.846,160.009 "/>
<polygon style="fill:#F4A200;" points="262.153,160.009 255.426,160.009 255.426,169.681 258.051,169.681 "/>
<polygon style="fill:#E9EFF4;" points="265.669,163.673 272.25,150.512 267.15,148.813 256,159.961 "/>
<polygon style="fill:#FFFFFF;" points="246.331,163.673 239.75,150.512 244.85,148.813 256,159.961 "/>
<g>
</g>
<g>
</g>
<g>
</g>
<g>
</g>
<g>
</g>
<g>
</g>
<g>
</g>
<g>
</g>
<g>
</g>
<g>
</g>
<g>
</g>
<g>
</g>
<g>
</g>
<g>
</g>
<g>
</g>
</svg>
