<?xml version="1.0" encoding="iso-8859-1"?>
<!-- Generator: Adobe Illustrator 19.0.0, SVG Export Plug-In . SVG Version: 6.00 Build 0)  -->
<svg version="1.1" id="Layer_1" xmlns="http://www.w3.org/2000/svg" xmlns:xlink="http://www.w3.org/1999/xlink" x="0px" y="0px"
	 viewBox="0 0 512 512" style="enable-background:new 0 0 512 512;" xml:space="preserve">
<circle style="fill:#F4E3C3;" cx="256" cy="256" r="256"/>
<path style="fill:#FED8B2;" d="M509.652,290.682L337.043,118.07L219.224,306.567l-44.527,87.076l116.005,116.005
	C404.328,494.247,494.261,404.309,509.652,290.682z"/>
<path style="fill:#324A5E;" d="M326.68,398.222H185.32c-8.092,0-14.653-6.561-14.653-14.653V128.431
	c0-8.092,6.561-14.653,14.653-14.653h141.36c8.092,0,14.653,6.561,14.653,14.653v255.138
	C341.333,391.663,334.774,398.222,326.68,398.222z"/>
<path style="fill:#2B3B4E;" d="M326.68,113.778h-71.254v284.444h71.254c8.092,0,14.653-6.561,14.653-14.653V128.431
	C341.333,120.339,334.774,113.778,326.68,113.778z"/>
<rect x="178.424" y="128.431" style="fill:#435B6B;" width="155.152" height="227.556"/>
<rect x="255.431" y="128.431" style="fill:#3C5566;" width="78.145" height="227.556"/>
<circle style="fill:#435B6B;" cx="256" cy="376.673" r="11.205"/>
<path style="fill:#324A5E;" d="M256,365.468c-0.193,0-0.383,0.019-0.574,0.029v22.352c0.191,0.01,0.381,0.029,0.574,0.029
	c6.189,0,11.205-5.017,11.205-11.205S262.189,365.468,256,365.468z"/>
<rect x="195.353" y="199.111" style="fill:#FFD15D;" width="121.311" height="72.783"/>
<rect x="255.431" y="199.111" style="fill:#F9B54C;" width="61.228" height="72.783"/>
<polygon style="fill:#FD8469;" points="316.654,199.111 256,247.634 195.346,199.111 "/>
<polygon style="fill:#FC6F58;" points="316.654,199.111 255.426,199.111 255.426,247.175 256,247.634 "/>
<g>
</g>
<g>
</g>
<g>
</g>
<g>
</g>
<g>
</g>
<g>
</g>
<g>
</g>
<g>
</g>
<g>
</g>
<g>
</g>
<g>
</g>
<g>
</g>
<g>
</g>
<g>
</g>
<g>
</g>
</svg>
